<?xml version="1.0" encoding="UTF-8"?><svg id="Capa_1" xmlns="http://www.w3.org/2000/svg" viewBox="0 0 335.24 359.19"><defs><style>.cls-1{fill:#73b7a7;}</style></defs><path class="cls-1" d="M167.5,359.16c-40.02,0-80.04,0-120.06,0C19.59,359.15,0,339.52,0,311.62,0,231.58,0,151.54,0,71.5c0-27.92,19.57-47.55,47.41-47.56,3.12,0,6.25-.21,9.35,.06,2.77,.24,3.34-.83,3.16-3.33-.22-2.98-.13-5.98-.03-8.97C60.12,5.01,65.43-.07,71.98,0c6.36,.07,11.55,5.14,11.79,11.64,.12,3.24,.09,6.48,0,9.72-.04,1.7,.09,2.65,2.32,2.64,22.44-.1,44.88-.08,67.33-.02,1.85,0,2.32-.58,2.25-2.33-.13-3.24-.1-6.48-.02-9.72C155.84,5.18,160.99,.04,167.53,0c6.52-.04,11.81,5.09,12.03,11.78,.11,3.36,.11,6.73,0,10.1-.06,1.64,.46,2.1,2.1,2.1,22.57-.05,45.13-.05,67.7,0,1.62,0,2.17-.43,2.11-2.09-.12-3.36-.11-6.73-.01-10.1C251.64,5.08,256.9-.03,263.44,0c6.51,.03,11.67,5.19,11.91,11.92,.01,.37-.02,.75,.01,1.12,.24,3.56-1.58,8.45,.7,10.33,2.17,1.79,6.89,.7,10.48,.54,23.86-1.07,41.35,14.33,46.69,32.32,1.28,4.33,1.99,8.72,1.99,13.24,0,81.41,.05,162.83-.03,244.24-.02,25.2-20.19,45.35-45.38,45.42-40.77,.11-81.54,.03-122.31,.03Zm54.24-203.53c13.57,0,27.15,.03,40.72,0,7.53-.02,12.92-5.11,12.88-12.04-.04-6.91-5.44-11.89-13.03-11.89-27.15-.02-54.3-.02-81.45,0-7.88,0-13.28,4.94-13.25,12.03,.03,7.03,5.48,11.9,13.4,11.91,13.57,.02,27.15,0,40.72,0Zm-.47,107.75c13.57,0,27.15,.01,40.72,0,7.9-.01,13.34-4.89,13.36-11.94,.02-7.06-5.42-11.99-13.3-11.99-27.03-.01-54.05-.01-81.08,0-7.93,0-13.33,4.86-13.35,11.93-.02,7.05,5.43,12,13.3,12.01,13.45,.02,26.9,0,40.35,0ZM59.76,131.47c-.11,3.77,1.57,6.68,4.16,9.24,7.34,7.28,14.63,14.61,21.94,21.91,6.69,6.68,13.1,6.74,19.73,.12,11.11-11.08,22.2-22.18,33.28-33.29,5.84-5.85,6.25-13.07,1.06-18.14-5.1-4.99-12.15-4.56-17.87,1.14-8.03,8-16.1,15.95-23.99,24.08-1.87,1.92-2.84,1.82-4.6-.05-4.35-4.62-8.87-9.09-13.45-13.49-3.78-3.63-8.34-4.44-13.11-2.38-4.62,2-7,5.77-7.13,10.85Zm0,107.7c-.1,3.76,1.53,6.69,4.12,9.26,7.51,7.45,14.97,14.97,22.47,22.43,6.12,6.09,12.75,6.08,18.93-.08,11.29-11.25,22.55-22.52,33.81-33.81,5.63-5.64,5.95-12.87,.87-17.88-5.08-5.01-12.17-4.61-17.87,1.07-8.12,8.08-16.25,16.15-24.27,24.34-1.6,1.64-2.45,1.73-4.06,.02-4.45-4.7-9.05-9.26-13.72-13.75-3.78-3.64-8.32-4.48-13.1-2.42-4.63,1.99-7.02,5.74-7.18,10.82Z"/></svg>